<svg xmlns="http://www.w3.org/2000/svg" xmlns:xlink="http://www.w3.org/1999/xlink" version="1.1" class="marks" width="432" height="486" viewBox="0 0 432 486"><rect width="432" height="486" fill="white"/><g fill="none" stroke-miterlimit="10" transform="translate(40,88)"><g class="mark-group role-frame root" role="graphics-object" aria-roledescription="group mark container"><g transform="translate(0,0)"><path class="background" aria-hidden="true" d="M0,0h0v0h0Z"/><g><g class="mark-group role-column-title column-title" role="graphics-object" aria-roledescription="group mark container"><g transform="translate(193,-31)"><path class="background" aria-hidden="true" d="M0,0h0v0h0Z"/><g><g class="mark-group role-title"><g transform="translate(0,-21)"><path class="background" aria-hidden="true" d="M0,0h0v0h0Z" pointer-events="none"/><g><g class="mark-text role-title-text" role="graphics-symbol" aria-roledescription="title" aria-label="Title text 'Country'" pointer-events="none"><text text-anchor="middle" transform="translate(0,9)" font-family="sans-serif" font-size="11px" font-weight="bold" fill="#000" opacity="1">Country</text></g></g><path class="foreground" aria-hidden="true" d="" pointer-events="none" display="none"/></g></g></g><path class="foreground" aria-hidden="true" d="" display="none"/></g></g><g class="mark-group role-row-header row_header" role="graphics-object" aria-roledescription="group mark container"><g transform="translate(-1,0)"><path class="background" aria-hidden="true" d="M0,0h0v300h0Z"/><g><g class="mark-group role-axis" role="graphics-symbol" aria-roledescription="axis" aria-label="Y-axis titled '% Adults (age 15+)' for a linear scale with values from 0 to 28"><g transform="translate(0.5,0.5)"><path class="background" aria-hidden="true" d="M0,0h0v0h0Z" pointer-events="none"/><g><g class="mark-rule role-axis-tick" pointer-events="none"><line transform="translate(0,300)" x2="-5" y2="0" stroke="#888" stroke-width="1" opacity="1"/><line transform="translate(0,246)" x2="-5" y2="0" stroke="#888" stroke-width="1" opacity="1"/><line transform="translate(0,193)" x2="-5" y2="0" stroke="#888" stroke-width="1" opacity="1"/><line transform="translate(0,139)" x2="-5" y2="0" stroke="#888" stroke-width="1" opacity="1"/><line transform="translate(0,86)" x2="-5" y2="0" stroke="#888" stroke-width="1" opacity="1"/><line transform="translate(0,32)" x2="-5" y2="0" stroke="#888" stroke-width="1" opacity="1"/></g><g class="mark-text role-axis-label" pointer-events="none"><text text-anchor="end" transform="translate(-7,303)" font-family="sans-serif" font-size="10px" fill="#000" opacity="1">0</text><text text-anchor="end" transform="translate(-7,249.42857142857142)" font-family="sans-serif" font-size="10px" fill="#000" opacity="1">5</text><text text-anchor="end" transform="translate(-7,195.85714285714283)" font-family="sans-serif" font-size="10px" fill="#000" opacity="1">10</text><text text-anchor="end" transform="translate(-7,142.28571428571428)" font-family="sans-serif" font-size="10px" fill="#000" opacity="1">15</text><text text-anchor="end" transform="translate(-7,88.71428571428571)" font-family="sans-serif" font-size="10px" fill="#000" opacity="1">20</text><text text-anchor="end" transform="translate(-7,35.14285714285713)" font-family="sans-serif" font-size="10px" fill="#000" opacity="1">25</text></g><g class="mark-rule role-axis-domain" pointer-events="none"><line transform="translate(0,300)" x2="0" y2="-300" stroke="#888" stroke-width="1" opacity="1"/></g><g class="mark-text role-axis-title" pointer-events="none"><text text-anchor="middle" transform="translate(-22.123046875,150) rotate(-90) translate(0,-2)" font-family="sans-serif" font-size="11px" font-weight="bold" fill="#000" opacity="1">% Adults (age 15+)</text></g></g><path class="foreground" aria-hidden="true" d="" pointer-events="none" display="none"/></g></g></g><path class="foreground" aria-hidden="true" d="" display="none"/></g></g><g class="mark-group role-column-header column_header" role="graphics-object" aria-roledescription="group mark container"><g transform="translate(0,-1)"><path class="background" aria-hidden="true" d="M0,0h80v0h-80Z"/><g><g class="mark-group role-title"><g transform="translate(40,-20)"><path class="background" aria-hidden="true" d="M0,0h0v0h0Z" pointer-events="none"/><g><g class="mark-text role-title-text" role="graphics-symbol" aria-roledescription="title" aria-label="Title text 'South Asia'" pointer-events="none"><text text-anchor="middle" transform="translate(0,8)" font-family="sans-serif" font-size="10px" fill="#000" opacity="1">South Asia</text></g></g><path class="foreground" aria-hidden="true" d="" pointer-events="none" display="none"/></g></g></g><path class="foreground" aria-hidden="true" d="" display="none"/></g><g transform="translate(102,-1)"><path class="background" aria-hidden="true" d="M0,0h80v0h-80Z"/><g><g class="mark-group role-title"><g transform="translate(40,-20)"><path class="background" aria-hidden="true" d="M0,0h0v0h0Z" pointer-events="none"/><g><g class="mark-text role-title-text" role="graphics-symbol" aria-roledescription="title" aria-label="Title text 'India'" pointer-events="none"><text text-anchor="middle" transform="translate(0,8)" font-family="sans-serif" font-size="10px" fill="#000" opacity="1">India</text></g></g><path class="foreground" aria-hidden="true" d="" pointer-events="none" display="none"/></g></g></g><path class="foreground" aria-hidden="true" d="" display="none"/></g><g transform="translate(204,-1)"><path class="background" aria-hidden="true" d="M0,0h80v0h-80Z"/><g><g class="mark-group role-title"><g transform="translate(40,-20)"><path class="background" aria-hidden="true" d="M0,0h0v0h0Z" pointer-events="none"/><g><g class="mark-text role-title-text" role="graphics-symbol" aria-roledescription="title" aria-label="Title text 'Bangladesh'" pointer-events="none"><text text-anchor="middle" transform="translate(0,8)" font-family="sans-serif" font-size="10px" fill="#000" opacity="1">Bangladesh</text></g></g><path class="foreground" aria-hidden="true" d="" pointer-events="none" display="none"/></g></g></g><path class="foreground" aria-hidden="true" d="" display="none"/></g><g transform="translate(306,-1)"><path class="background" aria-hidden="true" d="M0,0h80v0h-80Z"/><g><g class="mark-group role-title"><g transform="translate(40,-20)"><path class="background" aria-hidden="true" d="M0,0h0v0h0Z" pointer-events="none"/><g><g class="mark-text role-title-text" role="graphics-symbol" aria-roledescription="title" aria-label="Title text 'Pakistan'" pointer-events="none"><text text-anchor="middle" transform="translate(0,8)" font-family="sans-serif" font-size="10px" fill="#000" opacity="1">Pakistan</text></g></g><path class="foreground" aria-hidden="true" d="" pointer-events="none" display="none"/></g></g></g><path class="foreground" aria-hidden="true" d="" display="none"/></g></g><g class="mark-group role-column-footer column_footer" role="graphics-object" aria-roledescription="group mark container"><g transform="translate(0,301)"><path class="background" aria-hidden="true" d="M0,0h80v0h-80Z"/><g><g class="mark-group role-axis" role="graphics-symbol" aria-roledescription="axis" aria-label="X-axis titled 'year' for a discrete scale with 4 values: 2014, 2017, 2021, 2024"><g transform="translate(0.5,0.5)"><path class="background" aria-hidden="true" d="M0,0h0v0h0Z" pointer-events="none"/><g><g class="mark-rule role-axis-tick" pointer-events="none"><line transform="translate(10,0)" x2="0" y2="5" stroke="#888" stroke-width="1" opacity="1"/><line transform="translate(30,0)" x2="0" y2="5" stroke="#888" stroke-width="1" opacity="1"/><line transform="translate(50,0)" x2="0" y2="5" stroke="#888" stroke-width="1" opacity="1"/><line transform="translate(70,0)" x2="0" y2="5" stroke="#888" stroke-width="1" opacity="1"/></g><g class="mark-text role-axis-label" pointer-events="none"><text text-anchor="end" transform="translate(10,7) rotate(270) translate(0,3)" font-family="sans-serif" font-size="10px" fill="#000" opacity="1">2014</text><text text-anchor="end" transform="translate(30,7) rotate(270) translate(0,3)" font-family="sans-serif" font-size="10px" fill="#000" opacity="1">2017</text><text text-anchor="end" transform="translate(50,7) rotate(270) translate(0,3)" font-family="sans-serif" font-size="10px" fill="#000" opacity="1">2021</text><text text-anchor="end" transform="translate(70,7) rotate(270) translate(0,3)" font-family="sans-serif" font-size="10px" fill="#000" opacity="1">2024</text></g><g class="mark-rule role-axis-domain" pointer-events="none"><line transform="translate(0,0)" x2="80" y2="0" stroke="#888" stroke-width="1" opacity="1"/></g><g class="mark-text role-axis-title" pointer-events="none"><text text-anchor="middle" transform="translate(40,42.24609375)" font-family="sans-serif" font-size="11px" font-weight="bold" fill="#000" opacity="1">year</text></g></g><path class="foreground" aria-hidden="true" d="" pointer-events="none" display="none"/></g></g></g><path class="foreground" aria-hidden="true" d="" display="none"/></g><g transform="translate(102,301)"><path class="background" aria-hidden="true" d="M0,0h80v0h-80Z"/><g><g class="mark-group role-axis" role="graphics-symbol" aria-roledescription="axis" aria-label="X-axis titled 'year' for a discrete scale with 4 values: 2014, 2017, 2021, 2024"><g transform="translate(0.5,0.5)"><path class="background" aria-hidden="true" d="M0,0h0v0h0Z" pointer-events="none"/><g><g class="mark-rule role-axis-tick" pointer-events="none"><line transform="translate(10,0)" x2="0" y2="5" stroke="#888" stroke-width="1" opacity="1"/><line transform="translate(30,0)" x2="0" y2="5" stroke="#888" stroke-width="1" opacity="1"/><line transform="translate(50,0)" x2="0" y2="5" stroke="#888" stroke-width="1" opacity="1"/><line transform="translate(70,0)" x2="0" y2="5" stroke="#888" stroke-width="1" opacity="1"/></g><g class="mark-text role-axis-label" pointer-events="none"><text text-anchor="end" transform="translate(10,7) rotate(270) translate(0,3)" font-family="sans-serif" font-size="10px" fill="#000" opacity="1">2014</text><text text-anchor="end" transform="translate(30,7) rotate(270) translate(0,3)" font-family="sans-serif" font-size="10px" fill="#000" opacity="1">2017</text><text text-anchor="end" transform="translate(50,7) rotate(270) translate(0,3)" font-family="sans-serif" font-size="10px" fill="#000" opacity="1">2021</text><text text-anchor="end" transform="translate(70,7) rotate(270) translate(0,3)" font-family="sans-serif" font-size="10px" fill="#000" opacity="1">2024</text></g><g class="mark-rule role-axis-domain" pointer-events="none"><line transform="translate(0,0)" x2="80" y2="0" stroke="#888" stroke-width="1" opacity="1"/></g><g class="mark-text role-axis-title" pointer-events="none"><text text-anchor="middle" transform="translate(40,42.24609375)" font-family="sans-serif" font-size="11px" font-weight="bold" fill="#000" opacity="1">year</text></g></g><path class="foreground" aria-hidden="true" d="" pointer-events="none" display="none"/></g></g></g><path class="foreground" aria-hidden="true" d="" display="none"/></g><g transform="translate(204,301)"><path class="background" aria-hidden="true" d="M0,0h80v0h-80Z"/><g><g class="mark-group role-axis" role="graphics-symbol" aria-roledescription="axis" aria-label="X-axis titled 'year' for a discrete scale with 4 values: 2014, 2017, 2021, 2024"><g transform="translate(0.5,0.5)"><path class="background" aria-hidden="true" d="M0,0h0v0h0Z" pointer-events="none"/><g><g class="mark-rule role-axis-tick" pointer-events="none"><line transform="translate(10,0)" x2="0" y2="5" stroke="#888" stroke-width="1" opacity="1"/><line transform="translate(30,0)" x2="0" y2="5" stroke="#888" stroke-width="1" opacity="1"/><line transform="translate(50,0)" x2="0" y2="5" stroke="#888" stroke-width="1" opacity="1"/><line transform="translate(70,0)" x2="0" y2="5" stroke="#888" stroke-width="1" opacity="1"/></g><g class="mark-text role-axis-label" pointer-events="none"><text text-anchor="end" transform="translate(10,7) rotate(270) translate(0,3)" font-family="sans-serif" font-size="10px" fill="#000" opacity="1">2014</text><text text-anchor="end" transform="translate(30,7) rotate(270) translate(0,3)" font-family="sans-serif" font-size="10px" fill="#000" opacity="1">2017</text><text text-anchor="end" transform="translate(50,7) rotate(270) translate(0,3)" font-family="sans-serif" font-size="10px" fill="#000" opacity="1">2021</text><text text-anchor="end" transform="translate(70,7) rotate(270) translate(0,3)" font-family="sans-serif" font-size="10px" fill="#000" opacity="1">2024</text></g><g class="mark-rule role-axis-domain" pointer-events="none"><line transform="translate(0,0)" x2="80" y2="0" stroke="#888" stroke-width="1" opacity="1"/></g><g class="mark-text role-axis-title" pointer-events="none"><text text-anchor="middle" transform="translate(40,42.24609375)" font-family="sans-serif" font-size="11px" font-weight="bold" fill="#000" opacity="1">year</text></g></g><path class="foreground" aria-hidden="true" d="" pointer-events="none" display="none"/></g></g></g><path class="foreground" aria-hidden="true" d="" display="none"/></g><g transform="translate(306,301)"><path class="background" aria-hidden="true" d="M0,0h80v0h-80Z"/><g><g class="mark-group role-axis" role="graphics-symbol" aria-roledescription="axis" aria-label="X-axis titled 'year' for a discrete scale with 4 values: 2014, 2017, 2021, 2024"><g transform="translate(0.5,0.5)"><path class="background" aria-hidden="true" d="M0,0h0v0h0Z" pointer-events="none"/><g><g class="mark-rule role-axis-tick" pointer-events="none"><line transform="translate(10,0)" x2="0" y2="5" stroke="#888" stroke-width="1" opacity="1"/><line transform="translate(30,0)" x2="0" y2="5" stroke="#888" stroke-width="1" opacity="1"/><line transform="translate(50,0)" x2="0" y2="5" stroke="#888" stroke-width="1" opacity="1"/><line transform="translate(70,0)" x2="0" y2="5" stroke="#888" stroke-width="1" opacity="1"/></g><g class="mark-text role-axis-label" pointer-events="none"><text text-anchor="end" transform="translate(10,7) rotate(270) translate(0,3)" font-family="sans-serif" font-size="10px" fill="#000" opacity="1">2014</text><text text-anchor="end" transform="translate(30,7) rotate(270) translate(0,3)" font-family="sans-serif" font-size="10px" fill="#000" opacity="1">2017</text><text text-anchor="end" transform="translate(50,7) rotate(270) translate(0,3)" font-family="sans-serif" font-size="10px" fill="#000" opacity="1">2021</text><text text-anchor="end" transform="translate(70,7) rotate(270) translate(0,3)" font-family="sans-serif" font-size="10px" fill="#000" opacity="1">2024</text></g><g class="mark-rule role-axis-domain" pointer-events="none"><line transform="translate(0,0)" x2="80" y2="0" stroke="#888" stroke-width="1" opacity="1"/></g><g class="mark-text role-axis-title" pointer-events="none"><text text-anchor="middle" transform="translate(40,42.24609375)" font-family="sans-serif" font-size="11px" font-weight="bold" fill="#000" opacity="1">year</text></g></g><path class="foreground" aria-hidden="true" d="" pointer-events="none" display="none"/></g></g></g><path class="foreground" aria-hidden="true" d="" display="none"/></g></g><g class="mark-group role-scope cell" role="graphics-object" aria-roledescription="group mark container"><g transform="translate(0,0)"><path class="background" aria-hidden="true" d="M0.5,0.5h80v300h-80Z" stroke="#ddd"/><g><g class="mark-group role-axis" aria-hidden="true"><g transform="translate(0.5,0.5)"><path class="background" aria-hidden="true" d="M0,0h0v0h0Z" pointer-events="none"/><g><g class="mark-rule role-axis-grid" pointer-events="none"><line transform="translate(0,300)" x2="80" y2="0" stroke="#ddd" stroke-width="1" opacity="1"/><line transform="translate(0,246)" x2="80" y2="0" stroke="#ddd" stroke-width="1" opacity="1"/><line transform="translate(0,193)" x2="80" y2="0" stroke="#ddd" stroke-width="1" opacity="1"/><line transform="translate(0,139)" x2="80" y2="0" stroke="#ddd" stroke-width="1" opacity="1"/><line transform="translate(0,86)" x2="80" y2="0" stroke="#ddd" stroke-width="1" opacity="1"/><line transform="translate(0,32)" x2="80" y2="0" stroke="#ddd" stroke-width="1" opacity="1"/></g></g><path class="foreground" aria-hidden="true" d="" pointer-events="none" display="none"/></g></g><g class="mark-group role-scope child_layer_0_pathgroup" role="graphics-object" aria-roledescription="group mark container"><g transform="translate(0,0)"><path class="background" aria-hidden="true" d="M0,0h80v300h-80Z"/><g><g class="mark-line role-mark child_layer_0_marks" role="graphics-object" aria-roledescription="line mark container"><path aria-label="year: 2014; % Adults (age 15+): 12.6476684; Savings Method: Saved Formally" role="graphics-symbol" aria-roledescription="line mark" d="M10,164.489L30,116.259L50,167.559L70,44.952" stroke="rgb(147, 213, 189)" stroke-width="2"/></g></g><path class="foreground" aria-hidden="true" d="" display="none"/></g><g transform="translate(0,0)"><path class="background" aria-hidden="true" d="M0,0h80v300h-80Z"/><g><g class="mark-line role-mark child_layer_0_marks" role="graphics-object" aria-roledescription="line mark container"><path aria-label="year: 2014; % Adults (age 15+): 8.8420369; Savings Method: Saved Informally" role="graphics-symbol" aria-roledescription="line mark" d="M10,205.264L30,190.179L50,213.068L70,159.75" stroke="rgb(67, 165, 201)" stroke-width="2"/></g></g><path class="foreground" aria-hidden="true" d="" display="none"/></g></g><g class="mark-symbol role-mark child_layer_1_marks" role="graphics-object" aria-roledescription="symbol mark container"><path aria-label="year: 2014; % Adults (age 15+): 12.6476684; Savings Method: Saved Formally" role="graphics-symbol" aria-roledescription="point" transform="translate(10,164.48926714285713)" d="M2.739,0A2.739,2.739,0,1,1,-2.739,0A2.739,2.739,0,1,1,2.739,0" fill="rgb(147, 213, 189)" stroke-width="2" opacity="1"/><path aria-label="year: 2017; % Adults (age 15+): 17.1492013; Savings Method: Saved Formally" role="graphics-symbol" aria-roledescription="point" transform="translate(30,116.25855749999997)" d="M2.739,0A2.739,2.739,0,1,1,-2.739,0A2.739,2.739,0,1,1,2.739,0" fill="rgb(147, 213, 189)" stroke-width="2" opacity="1"/><path aria-label="year: 2021; % Adults (age 15+): 12.361164; Savings Method: Saved Formally" role="graphics-symbol" aria-roledescription="point" transform="translate(50,167.55895714285717)" d="M2.739,0A2.739,2.739,0,1,1,-2.739,0A2.739,2.739,0,1,1,2.739,0" fill="rgb(147, 213, 189)" stroke-width="2" opacity="1"/><path aria-label="year: 2024; % Adults (age 15+): 23.8044391; Savings Method: Saved Formally" role="graphics-symbol" aria-roledescription="point" transform="translate(70,44.95243821428572)" d="M2.739,0A2.739,2.739,0,1,1,-2.739,0A2.739,2.739,0,1,1,2.739,0" fill="rgb(147, 213, 189)" stroke-width="2" opacity="1"/><path aria-label="year: 2014; % Adults (age 15+): 8.8420369; Savings Method: Saved Informally" role="graphics-symbol" aria-roledescription="point" transform="translate(10,205.26389035714288)" d="M2.739,0A2.739,2.739,0,1,1,-2.739,0A2.739,2.739,0,1,1,2.739,0" fill="rgb(67, 165, 201)" stroke-width="2" opacity="1"/><path aria-label="year: 2017; % Adults (age 15+): 10.2499648; Savings Method: Saved Informally" role="graphics-symbol" aria-roledescription="point" transform="translate(30,190.17894857142858)" d="M2.739,0A2.739,2.739,0,1,1,-2.739,0A2.739,2.739,0,1,1,2.739,0" fill="rgb(67, 165, 201)" stroke-width="2" opacity="1"/><path aria-label="year: 2021; % Adults (age 15+): 8.1136956; Savings Method: Saved Informally" role="graphics-symbol" aria-roledescription="point" transform="translate(50,213.06754714285714)" d="M2.739,0A2.739,2.739,0,1,1,-2.739,0A2.739,2.739,0,1,1,2.739,0" fill="rgb(67, 165, 201)" stroke-width="2" opacity="1"/><path aria-label="year: 2024; % Adults (age 15+): 13.0900251; Savings Method: Saved Informally" role="graphics-symbol" aria-roledescription="point" transform="translate(70,159.74973107142858)" d="M2.739,0A2.739,2.739,0,1,1,-2.739,0A2.739,2.739,0,1,1,2.739,0" fill="rgb(67, 165, 201)" stroke-width="2" opacity="1"/></g></g><path class="foreground" aria-hidden="true" d="" display="none"/></g><g transform="translate(102,0)"><path class="background" aria-hidden="true" d="M0.5,0.5h80v300h-80Z" stroke="#ddd"/><g><g class="mark-group role-axis" aria-hidden="true"><g transform="translate(0.5,0.5)"><path class="background" aria-hidden="true" d="M0,0h0v0h0Z" pointer-events="none"/><g><g class="mark-rule role-axis-grid" pointer-events="none"><line transform="translate(0,300)" x2="80" y2="0" stroke="#ddd" stroke-width="1" opacity="1"/><line transform="translate(0,246)" x2="80" y2="0" stroke="#ddd" stroke-width="1" opacity="1"/><line transform="translate(0,193)" x2="80" y2="0" stroke="#ddd" stroke-width="1" opacity="1"/><line transform="translate(0,139)" x2="80" y2="0" stroke="#ddd" stroke-width="1" opacity="1"/><line transform="translate(0,86)" x2="80" y2="0" stroke="#ddd" stroke-width="1" opacity="1"/><line transform="translate(0,32)" x2="80" y2="0" stroke="#ddd" stroke-width="1" opacity="1"/></g></g><path class="foreground" aria-hidden="true" d="" pointer-events="none" display="none"/></g></g><g class="mark-group role-scope child_layer_0_pathgroup" role="graphics-object" aria-roledescription="group mark container"><g transform="translate(0,0)"><path class="background" aria-hidden="true" d="M0,0h80v300h-80Z"/><g><g class="mark-line role-mark child_layer_0_marks" role="graphics-object" aria-roledescription="line mark container"><path aria-label="year: 2014; % Adults (age 15+): 14.3600888; Savings Method: Saved Formally" role="graphics-symbol" aria-roledescription="line mark" d="M10,146.142L30,89.958L50,149.064L70,10.863" stroke="rgb(147, 213, 189)" stroke-width="2"/></g></g><path class="foreground" aria-hidden="true" d="" display="none"/></g><g transform="translate(0,0)"><path class="background" aria-hidden="true" d="M0,0h80v300h-80Z"/><g><g class="mark-line role-mark child_layer_0_marks" role="graphics-object" aria-roledescription="line mark container"><path aria-label="year: 2014; % Adults (age 15+): 8.7819779; Savings Method: Saved Informally" role="graphics-symbol" aria-roledescription="line mark" d="M10,205.907L30,209.535L50,210.808L70,159.825" stroke="rgb(67, 165, 201)" stroke-width="2"/></g></g><path class="foreground" aria-hidden="true" d="" display="none"/></g></g><g class="mark-symbol role-mark child_layer_1_marks" role="graphics-object" aria-roledescription="symbol mark container"><path aria-label="year: 2014; % Adults (age 15+): 14.3600888; Savings Method: Saved Formally" role="graphics-symbol" aria-roledescription="point" transform="translate(10,146.1419057142857)" d="M2.739,0A2.739,2.739,0,1,1,-2.739,0A2.739,2.739,0,1,1,2.739,0" fill="rgb(147, 213, 189)" stroke-width="2" opacity="1"/><path aria-label="year: 2017; % Adults (age 15+): 19.6039582; Savings Method: Saved Formally" role="graphics-symbol" aria-roledescription="point" transform="translate(30,89.95759071428576)" d="M2.739,0A2.739,2.739,0,1,1,-2.739,0A2.739,2.739,0,1,1,2.739,0" fill="rgb(147, 213, 189)" stroke-width="2" opacity="1"/><path aria-label="year: 2021; % Adults (age 15+): 14.0873314; Savings Method: Saved Formally" role="graphics-symbol" aria-roledescription="point" transform="translate(50,149.06430642857143)" d="M2.739,0A2.739,2.739,0,1,1,-2.739,0A2.739,2.739,0,1,1,2.739,0" fill="rgb(147, 213, 189)" stroke-width="2" opacity="1"/><path aria-label="year: 2024; % Adults (age 15+): 26.9861257; Savings Method: Saved Formally" role="graphics-symbol" aria-roledescription="point" transform="translate(70,10.862938928571408)" d="M2.739,0A2.739,2.739,0,1,1,-2.739,0A2.739,2.739,0,1,1,2.739,0" fill="rgb(147, 213, 189)" stroke-width="2" opacity="1"/><path aria-label="year: 2014; % Adults (age 15+): 8.7819779; Savings Method: Saved Informally" role="graphics-symbol" aria-roledescription="point" transform="translate(10,205.90737964285717)" d="M2.739,0A2.739,2.739,0,1,1,-2.739,0A2.739,2.739,0,1,1,2.739,0" fill="rgb(67, 165, 201)" stroke-width="2" opacity="1"/><path aria-label="year: 2017; % Adults (age 15+): 8.4434017; Savings Method: Saved Informally" role="graphics-symbol" aria-roledescription="point" transform="translate(30,209.53498178571425)" d="M2.739,0A2.739,2.739,0,1,1,-2.739,0A2.739,2.739,0,1,1,2.739,0" fill="rgb(67, 165, 201)" stroke-width="2" opacity="1"/><path aria-label="year: 2021; % Adults (age 15+): 8.3246237; Savings Method: Saved Informally" role="graphics-symbol" aria-roledescription="point" transform="translate(50,210.80760321428573)" d="M2.739,0A2.739,2.739,0,1,1,-2.739,0A2.739,2.739,0,1,1,2.739,0" fill="rgb(67, 165, 201)" stroke-width="2" opacity="1"/><path aria-label="year: 2024; % Adults (age 15+): 13.0830453; Savings Method: Saved Informally" role="graphics-symbol" aria-roledescription="point" transform="translate(70,159.82451464285714)" d="M2.739,0A2.739,2.739,0,1,1,-2.739,0A2.739,2.739,0,1,1,2.739,0" fill="rgb(67, 165, 201)" stroke-width="2" opacity="1"/></g></g><path class="foreground" aria-hidden="true" d="" display="none"/></g><g transform="translate(204,0)"><path class="background" aria-hidden="true" d="M0.5,0.5h80v300h-80Z" stroke="#ddd"/><g><g class="mark-group role-axis" aria-hidden="true"><g transform="translate(0.5,0.5)"><path class="background" aria-hidden="true" d="M0,0h0v0h0Z" pointer-events="none"/><g><g class="mark-rule role-axis-grid" pointer-events="none"><line transform="translate(0,300)" x2="80" y2="0" stroke="#ddd" stroke-width="1" opacity="1"/><line transform="translate(0,246)" x2="80" y2="0" stroke="#ddd" stroke-width="1" opacity="1"/><line transform="translate(0,193)" x2="80" y2="0" stroke="#ddd" stroke-width="1" opacity="1"/><line transform="translate(0,139)" x2="80" y2="0" stroke="#ddd" stroke-width="1" opacity="1"/><line transform="translate(0,86)" x2="80" y2="0" stroke="#ddd" stroke-width="1" opacity="1"/><line transform="translate(0,32)" x2="80" y2="0" stroke="#ddd" stroke-width="1" opacity="1"/></g></g><path class="foreground" aria-hidden="true" d="" pointer-events="none" display="none"/></g></g><g class="mark-group role-scope child_layer_0_pathgroup" role="graphics-object" aria-roledescription="group mark container"><g transform="translate(0,0)"><path class="background" aria-hidden="true" d="M0,0h80v300h-80Z"/><g><g class="mark-line role-mark child_layer_0_marks" role="graphics-object" aria-roledescription="line mark container"><path aria-label="year: 2014; % Adults (age 15+): 7.446175; Savings Method: Saved Formally" role="graphics-symbol" aria-roledescription="line mark" d="M10,220.22L30,193.679L50,222.373L70,186.212" stroke="rgb(147, 213, 189)" stroke-width="2"/></g></g><path class="foreground" aria-hidden="true" d="" display="none"/></g><g transform="translate(0,0)"><path class="background" aria-hidden="true" d="M0,0h80v300h-80Z"/><g><g class="mark-line role-mark child_layer_0_marks" role="graphics-object" aria-roledescription="line mark container"><path aria-label="year: 2014; % Adults (age 15+): 5.2270774; Savings Method: Saved Informally" role="graphics-symbol" aria-roledescription="line mark" d="M10,243.996L30,174.553L50,206.915L70,210.004" stroke="rgb(67, 165, 201)" stroke-width="2"/></g></g><path class="foreground" aria-hidden="true" d="" display="none"/></g></g><g class="mark-symbol role-mark child_layer_1_marks" role="graphics-object" aria-roledescription="symbol mark container"><path aria-label="year: 2014; % Adults (age 15+): 7.446175; Savings Method: Saved Formally" role="graphics-symbol" aria-roledescription="point" transform="translate(10,220.21955357142858)" d="M2.739,0A2.739,2.739,0,1,1,-2.739,0A2.739,2.739,0,1,1,2.739,0" fill="rgb(147, 213, 189)" stroke-width="2" opacity="1"/><path aria-label="year: 2017; % Adults (age 15+): 9.9232667; Savings Method: Saved Formally" role="graphics-symbol" aria-roledescription="point" transform="translate(30,193.67928535714287)" d="M2.739,0A2.739,2.739,0,1,1,-2.739,0A2.739,2.739,0,1,1,2.739,0" fill="rgb(147, 213, 189)" stroke-width="2" opacity="1"/><path aria-label="year: 2021; % Adults (age 15+): 7.2451441; Savings Method: Saved Formally" role="graphics-symbol" aria-roledescription="point" transform="translate(50,222.37345607142856)" d="M2.739,0A2.739,2.739,0,1,1,-2.739,0A2.739,2.739,0,1,1,2.739,0" fill="rgb(147, 213, 189)" stroke-width="2" opacity="1"/><path aria-label="year: 2024; % Adults (age 15+): 10.6202306; Savings Method: Saved Formally" role="graphics-symbol" aria-roledescription="point" transform="translate(70,186.211815)" d="M2.739,0A2.739,2.739,0,1,1,-2.739,0A2.739,2.739,0,1,1,2.739,0" fill="rgb(147, 213, 189)" stroke-width="2" opacity="1"/><path aria-label="year: 2014; % Adults (age 15+): 5.2270774; Savings Method: Saved Informally" role="graphics-symbol" aria-roledescription="point" transform="translate(10,243.9955992857143)" d="M2.739,0A2.739,2.739,0,1,1,-2.739,0A2.739,2.739,0,1,1,2.739,0" fill="rgb(67, 165, 201)" stroke-width="2" opacity="1"/><path aria-label="year: 2017; % Adults (age 15+): 11.708433; Savings Method: Saved Informally" role="graphics-symbol" aria-roledescription="point" transform="translate(30,174.5525035714286)" d="M2.739,0A2.739,2.739,0,1,1,-2.739,0A2.739,2.739,0,1,1,2.739,0" fill="rgb(67, 165, 201)" stroke-width="2" opacity="1"/><path aria-label="year: 2021; % Adults (age 15+): 8.6879346; Savings Method: Saved Informally" role="graphics-symbol" aria-roledescription="point" transform="translate(50,206.91498642857144)" d="M2.739,0A2.739,2.739,0,1,1,-2.739,0A2.739,2.739,0,1,1,2.739,0" fill="rgb(67, 165, 201)" stroke-width="2" opacity="1"/><path aria-label="year: 2024; % Adults (age 15+): 8.399581; Savings Method: Saved Informally" role="graphics-symbol" aria-roledescription="point" transform="translate(70,210.0044892857143)" d="M2.739,0A2.739,2.739,0,1,1,-2.739,0A2.739,2.739,0,1,1,2.739,0" fill="rgb(67, 165, 201)" stroke-width="2" opacity="1"/></g></g><path class="foreground" aria-hidden="true" d="" display="none"/></g><g transform="translate(306,0)"><path class="background" aria-hidden="true" d="M0.5,0.5h80v300h-80Z" stroke="#ddd"/><g><g class="mark-group role-axis" aria-hidden="true"><g transform="translate(0.5,0.5)"><path class="background" aria-hidden="true" d="M0,0h0v0h0Z" pointer-events="none"/><g><g class="mark-rule role-axis-grid" pointer-events="none"><line transform="translate(0,300)" x2="80" y2="0" stroke="#ddd" stroke-width="1" opacity="1"/><line transform="translate(0,246)" x2="80" y2="0" stroke="#ddd" stroke-width="1" opacity="1"/><line transform="translate(0,193)" x2="80" y2="0" stroke="#ddd" stroke-width="1" opacity="1"/><line transform="translate(0,139)" x2="80" y2="0" stroke="#ddd" stroke-width="1" opacity="1"/><line transform="translate(0,86)" x2="80" y2="0" stroke="#ddd" stroke-width="1" opacity="1"/><line transform="translate(0,32)" x2="80" y2="0" stroke="#ddd" stroke-width="1" opacity="1"/></g></g><path class="foreground" aria-hidden="true" d="" pointer-events="none" display="none"/></g></g><g class="mark-group role-scope child_layer_0_pathgroup" role="graphics-object" aria-roledescription="group mark container"><g transform="translate(0,0)"><path class="background" aria-hidden="true" d="M0,0h80v300h-80Z"/><g><g class="mark-line role-mark child_layer_0_marks" role="graphics-object" aria-roledescription="line mark container"><path aria-label="year: 2014; % Adults (age 15+): 3.2777798; Savings Method: Saved Formally" role="graphics-symbol" aria-roledescription="line mark" d="M10,264.881L30,234.683L50,269.73L70,164.337" stroke="rgb(147, 213, 189)" stroke-width="2"/></g></g><path class="foreground" aria-hidden="true" d="" display="none"/></g><g transform="translate(0,0)"><path class="background" aria-hidden="true" d="M0,0h80v300h-80Z"/><g><g class="mark-line role-mark child_layer_0_marks" role="graphics-object" aria-roledescription="line mark container"><path aria-label="year: 2014; % Adults (age 15+): 11.4001539; Savings Method: Saved Informally" role="graphics-symbol" aria-roledescription="line mark" d="M10,177.855L30,73.762L50,236.641L70,120.568" stroke="rgb(67, 165, 201)" stroke-width="2"/></g></g><path class="foreground" aria-hidden="true" d="" display="none"/></g></g><g class="mark-symbol role-mark child_layer_1_marks" role="graphics-object" aria-roledescription="symbol mark container"><path aria-label="year: 2014; % Adults (age 15+): 3.2777798; Savings Method: Saved Formally" role="graphics-symbol" aria-roledescription="point" transform="translate(10,264.88093071428574)" d="M2.739,0A2.739,2.739,0,1,1,-2.739,0A2.739,2.739,0,1,1,2.739,0" fill="rgb(147, 213, 189)" stroke-width="2" opacity="1"/><path aria-label="year: 2017; % Adults (age 15+): 6.0962272; Savings Method: Saved Formally" role="graphics-symbol" aria-roledescription="point" transform="translate(30,234.68328)" d="M2.739,0A2.739,2.739,0,1,1,-2.739,0A2.739,2.739,0,1,1,2.739,0" fill="rgb(147, 213, 189)" stroke-width="2" opacity="1"/><path aria-label="year: 2021; % Adults (age 15+): 2.8251731; Savings Method: Saved Formally" role="graphics-symbol" aria-roledescription="point" transform="translate(50,269.7302882142857)" d="M2.739,0A2.739,2.739,0,1,1,-2.739,0A2.739,2.739,0,1,1,2.739,0" fill="rgb(147, 213, 189)" stroke-width="2" opacity="1"/><path aria-label="year: 2024; % Adults (age 15+): 12.6618599; Savings Method: Saved Formally" role="graphics-symbol" aria-roledescription="point" transform="translate(70,164.33721535714284)" d="M2.739,0A2.739,2.739,0,1,1,-2.739,0A2.739,2.739,0,1,1,2.739,0" fill="rgb(147, 213, 189)" stroke-width="2" opacity="1"/><path aria-label="year: 2014; % Adults (age 15+): 11.4001539; Savings Method: Saved Informally" role="graphics-symbol" aria-roledescription="point" transform="translate(10,177.85549392857143)" d="M2.739,0A2.739,2.739,0,1,1,-2.739,0A2.739,2.739,0,1,1,2.739,0" fill="rgb(67, 165, 201)" stroke-width="2" opacity="1"/><path aria-label="year: 2017; % Adults (age 15+): 21.1155027; Savings Method: Saved Informally" role="graphics-symbol" aria-roledescription="point" transform="translate(30,73.76247107142858)" d="M2.739,0A2.739,2.739,0,1,1,-2.739,0A2.739,2.739,0,1,1,2.739,0" fill="rgb(67, 165, 201)" stroke-width="2" opacity="1"/><path aria-label="year: 2021; % Adults (age 15+): 5.9134951; Savings Method: Saved Informally" role="graphics-symbol" aria-roledescription="point" transform="translate(50,236.64112392857143)" d="M2.739,0A2.739,2.739,0,1,1,-2.739,0A2.739,2.739,0,1,1,2.739,0" fill="rgb(67, 165, 201)" stroke-width="2" opacity="1"/><path aria-label="year: 2024; % Adults (age 15+): 16.7469861; Savings Method: Saved Informally" role="graphics-symbol" aria-roledescription="point" transform="translate(70,120.56800607142856)" d="M2.739,0A2.739,2.739,0,1,1,-2.739,0A2.739,2.739,0,1,1,2.739,0" fill="rgb(67, 165, 201)" stroke-width="2" opacity="1"/></g></g><path class="foreground" aria-hidden="true" d="" display="none"/></g></g><g class="mark-group role-legend" role="graphics-symbol" aria-roledescription="legend" aria-label="Symbol legend titled 'Savings Method' for fill color and stroke color with 2 values: Saved Formally, Saved Informally"><g transform="translate(0,364)"><path class="background" aria-hidden="true" d="M0,0h188v29h-188Z" pointer-events="none"/><g><g class="mark-group role-legend-entry"><g transform="translate(0,16)"><path class="background" aria-hidden="true" d="M0,0h0v0h0Z" pointer-events="none"/><g><g class="mark-group role-scope" role="graphics-object" aria-roledescription="group mark container"><g transform="translate(0,0.25)"><path class="background" aria-hidden="true" d="M0,0h85.4677734375v12.5h-85.4677734375Z" pointer-events="none" opacity="1"/><g><g class="mark-symbol role-legend-symbol" pointer-events="none"><path transform="translate(6,6)" d="M5,0A5,5,0,1,1,-5,0A5,5,0,1,1,5,0" fill="rgb(147, 213, 189)" stroke="rgb(147, 213, 189)" stroke-width="1.5" opacity="1"/></g><g class="mark-text role-legend-label" pointer-events="none"><text text-anchor="start" transform="translate(16,9)" font-family="sans-serif" font-size="10px" fill="#000" opacity="1">Saved Formally</text></g></g><path class="foreground" aria-hidden="true" d="" pointer-events="none" display="none"/></g><g transform="translate(97,0.25)"><path class="background" aria-hidden="true" d="M0,0h90.4775390625v12.5h-90.4775390625Z" pointer-events="none" opacity="1"/><g><g class="mark-symbol role-legend-symbol" pointer-events="none"><path transform="translate(6,6)" d="M5,0A5,5,0,1,1,-5,0A5,5,0,1,1,5,0" fill="rgb(67, 165, 201)" stroke="rgb(67, 165, 201)" stroke-width="1.5" opacity="1"/></g><g class="mark-text role-legend-label" pointer-events="none"><text text-anchor="start" transform="translate(16,9)" font-family="sans-serif" font-size="10px" fill="#000" opacity="1">Saved Informally</text></g></g><path class="foreground" aria-hidden="true" d="" pointer-events="none" display="none"/></g></g></g><path class="foreground" aria-hidden="true" d="" pointer-events="none" display="none"/></g></g><g class="mark-text role-legend-title" pointer-events="none"><text text-anchor="start" transform="translate(0,9)" font-family="sans-serif" font-size="11px" font-weight="bold" fill="#000" opacity="1">Savings Method</text></g></g><path class="foreground" aria-hidden="true" d="" pointer-events="none" display="none"/></g></g><g class="mark-group role-title"><g transform="translate(-34.123046875,-83)"><path class="background" aria-hidden="true" d="M0,0h0v0h0Z" pointer-events="none"/><g><g class="mark-text role-title-text" role="graphics-symbol" aria-roledescription="title" aria-label="Title text 'Savings Behavior By Country (2011-2024)'" pointer-events="none"><text text-anchor="start" transform="translate(0,10)" font-family="sans-serif" font-size="13px" font-weight="bold" fill="#000" opacity="1">Savings Behavior By Country (2011-2024)</text></g><g class="mark-text role-title-subtitle" role="graphics-symbol" aria-roledescription="subtitle" aria-label="Subtitle text 'The percentage of respondents who reported saving formally or informally.'" pointer-events="none"><text text-anchor="start" transform="translate(0,25)" font-family="sans-serif" font-size="12px" fill="gray" opacity="1">The percentage of respondents who reported saving formally or informally.</text></g></g><path class="foreground" aria-hidden="true" d="" pointer-events="none" display="none"/></g></g></g><path class="foreground" aria-hidden="true" d="" display="none"/></g></g></g></svg>