<svg xmlns="http://www.w3.org/2000/svg" xmlns:xlink="http://www.w3.org/1999/xlink" version="1.1" class="marks" width="493" height="207" viewBox="0 0 493 207"><rect width="493" height="207" fill="white"/><g fill="none" stroke-miterlimit="10" transform="translate(131,50)"><g class="mark-group role-frame root" role="graphics-object" aria-roledescription="group mark container"><g transform="translate(0,0)"><path class="background" aria-hidden="true" d="M0.5,0.5h300v120h-300Z" stroke="#ddd"/><g><g class="mark-group role-axis" aria-hidden="true"><g transform="translate(0.5,120.5)"><path class="background" aria-hidden="true" d="M0,0h0v0h0Z" pointer-events="none"/><g><g class="mark-rule role-axis-grid" pointer-events="none"><line transform="translate(0,0)" x2="0" y2="-120" stroke="#ddd" stroke-width="1" opacity="1"/><line transform="translate(50,0)" x2="0" y2="-120" stroke="#ddd" stroke-width="1" opacity="1"/><line transform="translate(100,0)" x2="0" y2="-120" stroke="#ddd" stroke-width="1" opacity="1"/><line transform="translate(150,0)" x2="0" y2="-120" stroke="#ddd" stroke-width="1" opacity="1"/><line transform="translate(200,0)" x2="0" y2="-120" stroke="#ddd" stroke-width="1" opacity="1"/><line transform="translate(250,0)" x2="0" y2="-120" stroke="#ddd" stroke-width="1" opacity="1"/><line transform="translate(300,0)" x2="0" y2="-120" stroke="#ddd" stroke-width="1" opacity="1"/></g></g><path class="foreground" aria-hidden="true" d="" pointer-events="none" display="none"/></g></g><g class="mark-group role-axis" role="graphics-symbol" aria-roledescription="axis" aria-label="X-axis titled '% Adults (age 15+)' for a linear scale with values from 0 to 60"><g transform="translate(0.5,120.5)"><path class="background" aria-hidden="true" d="M0,0h0v0h0Z" pointer-events="none"/><g><g class="mark-rule role-axis-tick" pointer-events="none"><line transform="translate(0,0)" x2="0" y2="5" stroke="#888" stroke-width="1" opacity="1"/><line transform="translate(50,0)" x2="0" y2="5" stroke="#888" stroke-width="1" opacity="1"/><line transform="translate(100,0)" x2="0" y2="5" stroke="#888" stroke-width="1" opacity="1"/><line transform="translate(150,0)" x2="0" y2="5" stroke="#888" stroke-width="1" opacity="1"/><line transform="translate(200,0)" x2="0" y2="5" stroke="#888" stroke-width="1" opacity="1"/><line transform="translate(250,0)" x2="0" y2="5" stroke="#888" stroke-width="1" opacity="1"/><line transform="translate(300,0)" x2="0" y2="5" stroke="#888" stroke-width="1" opacity="1"/></g><g class="mark-text role-axis-label" pointer-events="none"><text text-anchor="start" transform="translate(0,15)" font-family="sans-serif" font-size="10px" fill="#000" opacity="1">0</text><text text-anchor="middle" transform="translate(50,15)" font-family="sans-serif" font-size="10px" fill="#000" opacity="1">10</text><text text-anchor="middle" transform="translate(100,15)" font-family="sans-serif" font-size="10px" fill="#000" opacity="1">20</text><text text-anchor="middle" transform="translate(150,15)" font-family="sans-serif" font-size="10px" fill="#000" opacity="1">30</text><text text-anchor="middle" transform="translate(200,15)" font-family="sans-serif" font-size="10px" fill="#000" opacity="1">40</text><text text-anchor="middle" transform="translate(250,15)" font-family="sans-serif" font-size="10px" fill="#000" opacity="1">50</text><text text-anchor="end" transform="translate(300,15)" font-family="sans-serif" font-size="10px" fill="#000" opacity="1">60</text></g><g class="mark-rule role-axis-domain" pointer-events="none"><line transform="translate(0,0)" x2="300" y2="0" stroke="#888" stroke-width="1" opacity="1"/></g><g class="mark-text role-axis-title" pointer-events="none"><text text-anchor="middle" transform="translate(150,30)" font-family="sans-serif" font-size="11px" font-weight="bold" fill="#000" opacity="1">% Adults (age 15+)</text></g></g><path class="foreground" aria-hidden="true" d="" pointer-events="none" display="none"/></g></g><g class="mark-group role-axis" role="graphics-symbol" aria-roledescription="axis" aria-label="Y-axis for a discrete scale with 6 values: South Asia, Sub-Saharan Africa, Middle East &amp; North Africa, Latin America &amp; Caribbean, Europe &amp; Central Asia, East Asia &amp; Pacific"><g transform="translate(0.5,0.5)"><path class="background" aria-hidden="true" d="M0,0h0v0h0Z" pointer-events="none"/><g><g class="mark-rule role-axis-tick" pointer-events="none"><line transform="translate(0,10)" x2="-5" y2="0" stroke="#888" stroke-width="1" opacity="1"/><line transform="translate(0,30)" x2="-5" y2="0" stroke="#888" stroke-width="1" opacity="1"/><line transform="translate(0,50)" x2="-5" y2="0" stroke="#888" stroke-width="1" opacity="1"/><line transform="translate(0,70)" x2="-5" y2="0" stroke="#888" stroke-width="1" opacity="1"/><line transform="translate(0,90)" x2="-5" y2="0" stroke="#888" stroke-width="1" opacity="1"/><line transform="translate(0,110)" x2="-5" y2="0" stroke="#888" stroke-width="1" opacity="1"/></g><g class="mark-text role-axis-label" pointer-events="none"><text text-anchor="end" transform="translate(-7,13)" font-family="sans-serif" font-size="10px" fill="#000" opacity="1">South Asia</text><text text-anchor="end" transform="translate(-7,33)" font-family="sans-serif" font-size="10px" fill="#000" opacity="1">Sub-Saharan Africa</text><text text-anchor="end" transform="translate(-7,53)" font-family="sans-serif" font-size="10px" fill="#000" opacity="1">Middle East &amp; North Africa</text><text text-anchor="end" transform="translate(-7,73)" font-family="sans-serif" font-size="10px" fill="#000" opacity="1">Latin America &amp; Caribbean</text><text text-anchor="end" transform="translate(-7,93)" font-family="sans-serif" font-size="10px" fill="#000" opacity="1">Europe &amp; Central Asia</text><text text-anchor="end" transform="translate(-7,113)" font-family="sans-serif" font-size="10px" fill="#000" opacity="1">East Asia &amp; Pacific</text></g><g class="mark-rule role-axis-domain" pointer-events="none"><line transform="translate(0,0)" x2="0" y2="120" stroke="#888" stroke-width="1" opacity="1"/></g></g><path class="foreground" aria-hidden="true" d="" pointer-events="none" display="none"/></g></g><g class="mark-group role-scope layer_0_pathgroup" role="graphics-object" aria-roledescription="group mark container"><g transform="translate(0,0)"><path class="background" aria-hidden="true" d="M0,0h300v120h-300Z"/><g><g class="mark-line role-mark layer_0_marks" role="graphics-object" aria-roledescription="line mark container"><path aria-label="% Adults (age 15+): 28.469892; clean_region_name: East Asia &amp; Pacific" role="graphics-symbol" aria-roledescription="line mark" d="M142.349,110L294.391,110" stroke="#66c2a5" stroke-width="2"/></g></g><path class="foreground" aria-hidden="true" d="" display="none"/></g><g transform="translate(0,0)"><path class="background" aria-hidden="true" d="M0,0h300v120h-300Z"/><g><g class="mark-line role-mark layer_0_marks" role="graphics-object" aria-roledescription="line mark container"><path aria-label="% Adults (age 15+): 4.0142484; clean_region_name: Europe &amp; Central Asia" role="graphics-symbol" aria-roledescription="line mark" d="M20.071,90L116.281,90" stroke="#fc8d62" stroke-width="2"/></g></g><path class="foreground" aria-hidden="true" d="" display="none"/></g><g transform="translate(0,0)"><path class="background" aria-hidden="true" d="M0,0h300v120h-300Z"/><g><g class="mark-line role-mark layer_0_marks" role="graphics-object" aria-roledescription="line mark container"><path aria-label="% Adults (age 15+): 7.999005; clean_region_name: Middle East &amp; North Africa" role="graphics-symbol" aria-roledescription="line mark" d="M39.995,50L84.797,50" stroke="#e78ac3" stroke-width="2"/></g></g><path class="foreground" aria-hidden="true" d="" display="none"/></g><g transform="translate(0,0)"><path class="background" aria-hidden="true" d="M0,0h300v120h-300Z"/><g><g class="mark-line role-mark layer_0_marks" role="graphics-object" aria-roledescription="line mark container"><path aria-label="% Adults (age 15+): 13.8628065; clean_region_name: Sub-Saharan Africa" role="graphics-symbol" aria-roledescription="line mark" d="M69.314,30L173.436,30" stroke="#ffd92f" stroke-width="2"/></g></g><path class="foreground" aria-hidden="true" d="" display="none"/></g><g transform="translate(0,0)"><path class="background" aria-hidden="true" d="M0,0h300v120h-300Z"/><g><g class="mark-line role-mark layer_0_marks" role="graphics-object" aria-roledescription="line mark container"><path aria-label="% Adults (age 15+): 9.6384581; clean_region_name: Latin America &amp; Caribbean" role="graphics-symbol" aria-roledescription="line mark" d="M48.192,70L143.995,70" stroke="#8da0cb" stroke-width="2"/></g></g><path class="foreground" aria-hidden="true" d="" display="none"/></g><g transform="translate(0,0)"><path class="background" aria-hidden="true" d="M0,0h300v120h-300Z"/><g><g class="mark-line role-mark layer_0_marks" role="graphics-object" aria-roledescription="line mark container"><path aria-label="% Adults (age 15+): 11.0479292; clean_region_name: South Asia" role="graphics-symbol" aria-roledescription="line mark" d="M55.24,10L119.022,10" stroke="#a6d854" stroke-width="2"/></g></g><path class="foreground" aria-hidden="true" d="" display="none"/></g></g><g class="mark-symbol role-mark layer_1_marks" role="graphics-object" aria-roledescription="symbol mark container"><path aria-label="% Adults (age 15+): 28.469892; clean_region_name: East Asia &amp; Pacific; Year: 2011" role="graphics-symbol" aria-roledescription="point" transform="translate(142.34946000000002,110)" d="M2.739,0A2.739,2.739,0,1,1,-2.739,0A2.739,2.739,0,1,1,2.739,0" fill="#66c2a5" stroke-width="2" opacity="1"/><path aria-label="% Adults (age 15+): 4.0142484; clean_region_name: Europe &amp; Central Asia; Year: 2011" role="graphics-symbol" aria-roledescription="point" transform="translate(20.071241999999994,90)" d="M2.739,0A2.739,2.739,0,1,1,-2.739,0A2.739,2.739,0,1,1,2.739,0" fill="#fc8d62" stroke-width="2" opacity="1"/><path aria-label="% Adults (age 15+): 7.999005; clean_region_name: Middle East &amp; North Africa; Year: 2011" role="graphics-symbol" aria-roledescription="point" transform="translate(39.995025,50)" d="M2.739,0A2.739,2.739,0,1,1,-2.739,0A2.739,2.739,0,1,1,2.739,0" fill="#e78ac3" stroke-width="2" opacity="1"/><path aria-label="% Adults (age 15+): 13.8628065; clean_region_name: Sub-Saharan Africa; Year: 2011" role="graphics-symbol" aria-roledescription="point" transform="translate(69.3140325,30)" d="M2.739,0A2.739,2.739,0,1,1,-2.739,0A2.739,2.739,0,1,1,2.739,0" fill="#ffd92f" stroke-width="2" opacity="1"/><path aria-label="% Adults (age 15+): 58.8782658; clean_region_name: East Asia &amp; Pacific; Year: 2024" role="graphics-symbol" aria-roledescription="point" transform="translate(294.391329,110)" d="M0,-2.372L-2.739,2.372L2.739,2.372Z" fill="#66c2a5" stroke-width="2" opacity="1"/><path aria-label="% Adults (age 15+): 23.2561262; clean_region_name: Europe &amp; Central Asia; Year: 2024" role="graphics-symbol" aria-roledescription="point" transform="translate(116.280631,90)" d="M0,-2.372L-2.739,2.372L2.739,2.372Z" fill="#fc8d62" stroke-width="2" opacity="1"/><path aria-label="% Adults (age 15+): 16.9593898; clean_region_name: Middle East &amp; North Africa; Year: 2024" role="graphics-symbol" aria-roledescription="point" transform="translate(84.796949,50)" d="M0,-2.372L-2.739,2.372L2.739,2.372Z" fill="#e78ac3" stroke-width="2" opacity="1"/><path aria-label="% Adults (age 15+): 34.6871845; clean_region_name: Sub-Saharan Africa; Year: 2024" role="graphics-symbol" aria-roledescription="point" transform="translate(173.4359225,30)" d="M0,-2.372L-2.739,2.372L2.739,2.372Z" fill="#ffd92f" stroke-width="2" opacity="1"/><path aria-label="% Adults (age 15+): 9.6384581; clean_region_name: Latin America &amp; Caribbean; Year: 2011" role="graphics-symbol" aria-roledescription="point" transform="translate(48.1922905,70)" d="M2.739,0A2.739,2.739,0,1,1,-2.739,0A2.739,2.739,0,1,1,2.739,0" fill="#8da0cb" stroke-width="2" opacity="1"/><path aria-label="% Adults (age 15+): 11.0479292; clean_region_name: South Asia; Year: 2011" role="graphics-symbol" aria-roledescription="point" transform="translate(55.23964600000001,10)" d="M2.739,0A2.739,2.739,0,1,1,-2.739,0A2.739,2.739,0,1,1,2.739,0" fill="#a6d854" stroke-width="2" opacity="1"/><path aria-label="% Adults (age 15+): 28.7989238; clean_region_name: Latin America &amp; Caribbean; Year: 2024" role="graphics-symbol" aria-roledescription="point" transform="translate(143.99461899999997,70)" d="M0,-2.372L-2.739,2.372L2.739,2.372Z" fill="#8da0cb" stroke-width="2" opacity="1"/><path aria-label="% Adults (age 15+): 23.8044391; clean_region_name: South Asia; Year: 2024" role="graphics-symbol" aria-roledescription="point" transform="translate(119.0221955,10)" d="M0,-2.372L-2.739,2.372L2.739,2.372Z" fill="#a6d854" stroke-width="2" opacity="1"/></g><g class="mark-group role-legend" role="graphics-symbol" aria-roledescription="legend" aria-label="Symbol legend titled 'Year' for shape with 2 values: 2011, 2024"><g transform="translate(318,0)"><path class="background" aria-hidden="true" d="M0,0h39v43h-39Z" pointer-events="none"/><g><g class="mark-group role-legend-entry"><g transform="translate(0,16)"><path class="background" aria-hidden="true" d="M0,0h0v0h0Z" pointer-events="none"/><g><g class="mark-group role-scope" role="graphics-object" aria-roledescription="group mark container"><g transform="translate(0,0)"><path class="background" aria-hidden="true" d="M0,0h38.24609375v12.5h-38.24609375Z" pointer-events="none" opacity="1"/><g><g class="mark-symbol role-legend-symbol" pointer-events="none"><path transform="translate(6,6)" d="M5,0A5,5,0,1,1,-5,0A5,5,0,1,1,5,0" fill="black" fill-opacity="1" stroke-width="1.5" opacity="1"/></g><g class="mark-text role-legend-label" pointer-events="none"><text text-anchor="start" transform="translate(16,9)" font-family="sans-serif" font-size="10px" fill="#000" opacity="1">2011</text></g></g><path class="foreground" aria-hidden="true" d="" pointer-events="none" display="none"/></g><g transform="translate(0,15)"><path class="background" aria-hidden="true" d="M0,0h38.24609375v11.830127018922191h-38.24609375Z" pointer-events="none" opacity="1"/><g><g class="mark-symbol role-legend-symbol" pointer-events="none"><path transform="translate(6,6)" d="M0,-4.33L-5,4.33L5,4.33Z" fill="black" fill-opacity="1" stroke-width="1.5" opacity="1"/></g><g class="mark-text role-legend-label" pointer-events="none"><text text-anchor="start" transform="translate(16,9)" font-family="sans-serif" font-size="10px" fill="#000" opacity="1">2024</text></g></g><path class="foreground" aria-hidden="true" d="" pointer-events="none" display="none"/></g></g></g><path class="foreground" aria-hidden="true" d="" pointer-events="none" display="none"/></g></g><g class="mark-text role-legend-title" pointer-events="none"><text text-anchor="start" transform="translate(0,9)" font-family="sans-serif" font-size="11px" font-weight="bold" fill="#000" opacity="1">Year</text></g></g><path class="foreground" aria-hidden="true" d="" pointer-events="none" display="none"/></g></g><g class="mark-group role-title"><g transform="translate(-125.955078125,-45)"><path class="background" aria-hidden="true" d="M0,0h0v0h0Z" pointer-events="none"/><g><g class="mark-text role-title-text" role="graphics-symbol" aria-roledescription="title" aria-label="Title text 'Financial use: formal savings (2011-2024)'" pointer-events="none"><text text-anchor="start" transform="translate(0,10)" font-family="sans-serif" font-size="13px" font-weight="bold" fill="#000" opacity="1">Financial use: formal savings (2011-2024)</text></g><g class="mark-text role-title-subtitle" role="graphics-symbol" aria-roledescription="subtitle" aria-label="Subtitle text 'The percentage of respondents who saved at a bank or similar financial institution or using a mobile money account in the past year.'" pointer-events="none"><text text-anchor="start" transform="translate(0,25)" font-family="sans-serif" font-size="12px" fill="gray" opacity="1"><tspan>The percentage of respondents who saved at a bank or similar financial institution</tspan><tspan x="0" dy="14">or using a mobile money account in the past year.</tspan></text></g></g><path class="foreground" aria-hidden="true" d="" pointer-events="none" display="none"/></g></g></g><path class="foreground" aria-hidden="true" d="" display="none"/></g></g></g></svg>